<svg xmlns="http://www.w3.org/2000/svg" viewBox="0 0 512 512">
    <symbol id="config_icon_fill" viewBox="0 0 512 512">
        <path
            d="M495.9 166.6c3.2 8.7 .5 18.4-6.4 24.6l-43.3 39.4c1.1 8.3 1.7 16.8 1.7 25.4s-.6 17.1-1.7 25.4l43.3 39.4c6.9 6.2 9.6 15.9 6.4 24.6c-4.4 11.9-9.7 23.3-15.8 34.3l-4.7 8.1c-6.6 11-14 21.4-22.1 31.2c-5.9 7.2-15.7 9.6-24.5 6.8l-55.7-17.7c-13.4 10.3-28.2 18.9-44 25.4l-12.5 57.1c-2 9.1-9 16.3-18.2 17.8c-13.8 2.3-28 3.5-42.5 3.5s-28.7-1.2-42.5-3.5c-9.2-1.5-16.2-8.7-18.2-17.8l-12.5-57.1c-15.8-6.5-30.6-15.1-44-25.4L83.1 425.9c-8.8 2.8-18.6 .3-24.5-6.8c-8.1-9.8-15.5-20.2-22.1-31.2l-4.7-8.1c-6.1-11-11.4-22.4-15.8-34.3c-3.2-8.7-.5-18.4 6.4-24.6l43.3-39.4C64.6 273.1 64 264.6 64 256s.6-17.1 1.7-25.4L22.4 191.2c-6.9-6.2-9.6-15.9-6.4-24.6c4.4-11.9 9.7-23.3 15.8-34.3l4.7-8.1c6.6-11 14-21.4 22.1-31.2c5.9-7.2 15.7-9.6 24.5-6.8l55.7 17.7c13.4-10.3 28.2-18.9 44-25.4l12.5-57.1c2-9.1 9-16.3 18.2-17.8C227.3 1.2 241.5 0 256 0s28.7 1.2 42.5 3.5c9.2 1.5 16.2 8.7 18.2 17.8l12.5 57.1c15.8 6.5 30.6 15.1 44 25.4l55.7-17.7c8.8-2.8 18.6-.3 24.5 6.8c8.1 9.8 15.5 20.2 22.1 31.2l4.7 8.1c6.1 11 11.4 22.4 15.8 34.3zM256 336a80 80 0 1 0 0-160 80 80 0 1 0 0 160z" />
    </symbol>

    <symbol
        id="config_icon_dashed" viewBox="0 0 32 32" version="1.1"
        xmlns="http://www.w3.org/2000/svg"
        xmlns:xlink="http://www.w3.org/1999/xlink" fill="#ffffff">
        <g id="SVGRepo_bgCarrier" stroke-width="0"></g>
        <g id="SVGRepo_tracerCarrier" stroke-linecap="round" stroke-linejoin="round"></g>
        <g id="SVGRepo_iconCarrier">
            <g id="icomoon-ignore"> </g>
            <path
                d="M17.599 3.738v2.598l0.8 0.207c0.905 0.234 1.768 0.597 2.566 1.081l0.715 0.434 1.86-1.86 2.262 2.262-1.888 1.888 0.407 0.708c0.451 0.785 0.788 1.635 1.002 2.527l0.196 0.817h2.744v3.199h-2.806l-0.216 0.782c-0.233 0.844-0.583 1.654-1.040 2.406l-0.434 0.716 2.036 2.035-2.262 2.262-2.064-2.064-0.707 0.407c-0.734 0.422-1.531 0.745-2.368 0.961l-0.8 0.206v2.951h-3.199v-2.951l-0.8-0.206c-0.837-0.216-1.634-0.539-2.368-0.961l-0.708-0.407-2.064 2.064-2.262-2.262 2.036-2.035-0.434-0.716c-0.457-0.753-0.807-1.562-1.040-2.406l-0.216-0.782h-2.806v-3.199h2.744l0.196-0.817c0.213-0.891 0.551-1.742 1.002-2.527l0.407-0.708-1.888-1.888 2.262-2.262 1.86 1.86 0.715-0.434c0.798-0.484 1.661-0.848 2.566-1.081l0.8-0.207v-2.598h3.199zM16 20.799c2.646 0 4.798-2.153 4.798-4.799s-2.152-4.799-4.798-4.799-4.798 2.153-4.798 4.799c0 2.646 2.152 4.799 4.798 4.799zM18.666 2.672h-5.331v2.839c-1.018 0.263-1.975 0.67-2.852 1.202l-2.022-2.022-3.769 3.77 2.065 2.065c-0.498 0.867-0.875 1.81-1.114 2.809h-2.97v5.331h3.060c0.263 0.953 0.655 1.85 1.156 2.676l-2.198 2.198 3.769 3.77 2.241-2.241c0.816 0.469 1.7 0.828 2.633 1.069v3.191h5.331v-3.191c0.933-0.241 1.817-0.6 2.633-1.069l2.241 2.241 3.769-3.77-2.198-2.198c0.501-0.826 0.893-1.723 1.156-2.676h3.060v-5.331h-2.97c-0.239-0.999-0.616-1.941-1.114-2.809l2.065-2.065-3.769-3.77-2.022 2.022c-0.877-0.532-1.834-0.939-2.852-1.202v-2.839h-0zM16 19.733c-2.062 0-3.732-1.671-3.732-3.733s1.67-3.732 3.732-3.732 3.732 1.671 3.732 3.732c0 2.062-1.67 3.733-3.732 3.733v0z"
                fill="#ffffff"> </path>
        </g>
    </symbol>

    <symbol id="light_theme_icon"
        viewBox="0 0 24 24"
        xmlns="http://www.w3.org/2000/svg">
        <g id="SVGRepo_bgCarrier" stroke-width="0"></g>
        <g id="SVGRepo_tracerCarrier" stroke-linecap="round" stroke-linejoin="round"></g>
        <g id="SVGRepo_iconCarrier">
            <g id="Light">
                <g>
                    <path
                        d="M12,18.09A6.09,6.09,0,1,1,18.09,12,6.1,6.1,0,0,1,12,18.09ZM12,6.91A5.09,5.09,0,1,0,17.09,12,5.1,5.1,0,0,0,12,6.91Z"></path>
                    <path d="M11.5,2.568v1.6a.5.5,0,1,0,1,0v-1.6a.5.5,0,1,0-1,0Z"></path>
                    <path d="M12.5,21.432v-1.6a.5.5,0,0,0-1,0v1.6a.5.5,0,1,0,1,0Z"></path>
                    <path d="M21.432,11.5h-1.6a.5.5,0,0,0,0,1h1.6a.5.5,0,1,0,0-1Z"></path>
                    <path d="M2.568,12.5h1.6a.5.5,0,1,0,0-1h-1.6a.5.5,0,1,0,0,1Z"></path>
                    <path
                        d="M18.316,4.977l-.992.992-.141.141a.514.514,0,0,0-.146.353.508.508,0,0,0,.146.354.5.5,0,0,0,.354.146.515.515,0,0,0,.353-.146l.992-.992.141-.141a.515.515,0,0,0,.147-.354.508.508,0,0,0-.147-.353.5.5,0,0,0-.353-.147.522.522,0,0,0-.354.147Z"></path>
                    <path
                        d="M5.684,19.023l.992-.992.141-.141a.514.514,0,0,0,.146-.353.508.508,0,0,0-.146-.354.5.5,0,0,0-.354-.146.515.515,0,0,0-.353.146l-.992.992-.141.141a.515.515,0,0,0-.147.354.508.508,0,0,0,.147.353.5.5,0,0,0,.353.147.522.522,0,0,0,.354-.147Z"></path>
                    <path
                        d="M19.023,18.316l-.992-.992-.141-.141a.514.514,0,0,0-.353-.146.508.508,0,0,0-.354.146.5.5,0,0,0-.146.354.515.515,0,0,0,.146.353l.992.992.141.141a.515.515,0,0,0,.354.147.508.508,0,0,0,.353-.147.5.5,0,0,0,.147-.353.522.522,0,0,0-.147-.354Z"></path>
                    <path
                        d="M4.977,5.684l.992.992.141.141a.514.514,0,0,0,.353.146.508.508,0,0,0,.354-.146.5.5,0,0,0,.146-.354.515.515,0,0,0-.146-.353l-.992-.992-.141-.141A.515.515,0,0,0,5.33,4.83a.508.508,0,0,0-.353.147.5.5,0,0,0-.147.353.522.522,0,0,0,.147.354Z"></path>
                </g>
            </g>
        </g>
    </symbol>

    <symbol id="dark_theme_icon" width="64px" height="64px" viewBox="0 0 24 24" fill="none"
        xmlns="http://www.w3.org/2000/svg" transform="matrix(1, 0, 0, 1, 0, 0)">
        <g id="SVGRepo_bgCarrier" stroke-width="0"></g>
        <g id="SVGRepo_tracerCarrier" stroke-linecap="round" stroke-linejoin="round"
            stroke="#FFFFFF" stroke-width="0.048"></g>
        <g id="SVGRepo_iconCarrier">
            <path
                d="M19.9001 2.30719C19.7392 1.8976 19.1616 1.8976 19.0007 2.30719L18.5703 3.40247C18.5212 3.52752 18.4226 3.62651 18.298 3.67583L17.2067 4.1078C16.7986 4.26934 16.7986 4.849 17.2067 5.01054L18.298 5.44252C18.4226 5.49184 18.5212 5.59082 18.5703 5.71587L19.0007 6.81115C19.1616 7.22074 19.7392 7.22074 19.9001 6.81116L20.3305 5.71587C20.3796 5.59082 20.4782 5.49184 20.6028 5.44252L21.6941 5.01054C22.1022 4.849 22.1022 4.26934 21.6941 4.1078L20.6028 3.67583C20.4782 3.62651 20.3796 3.52752 20.3305 3.40247L19.9001 2.30719Z"
                stroke="#FFFFFF"></path>
            <path
                d="M16.0328 8.12967C15.8718 7.72009 15.2943 7.72009 15.1333 8.12967L14.9764 8.52902C14.9273 8.65407 14.8287 8.75305 14.7041 8.80237L14.3062 8.95987C13.8981 9.12141 13.8981 9.70107 14.3062 9.86261L14.7041 10.0201C14.8287 10.0694 14.9273 10.1684 14.9764 10.2935L15.1333 10.6928C15.2943 11.1024 15.8718 11.1024 16.0328 10.6928L16.1897 10.2935C16.2388 10.1684 16.3374 10.0694 16.462 10.0201L16.8599 9.86261C17.268 9.70107 17.268 9.12141 16.8599 8.95987L16.462 8.80237C16.3374 8.75305 16.2388 8.65407 16.1897 8.52902L16.0328 8.12967Z"
                stroke="#FFFFFF"></path>
            <path opacity="0.5"
                d="M21.0672 11.8568L20.4253 11.469L21.0672 11.8568ZM12.1432 2.93276L11.7553 2.29085V2.29085L12.1432 2.93276ZM21.25 12C21.25 17.1086 17.1086 21.25 12 21.25V22.75C17.9371 22.75 22.75 17.9371 22.75 12H21.25ZM12 21.25C6.89137 21.25 2.75 17.1086 2.75 12H1.25C1.25 17.9371 6.06294 22.75 12 22.75V21.25ZM2.75 12C2.75 6.89137 6.89137 2.75 12 2.75V1.25C6.06294 1.25 1.25 6.06294 1.25 12H2.75ZM15.5 14.25C12.3244 14.25 9.75 11.6756 9.75 8.5H8.25C8.25 12.5041 11.4959 15.75 15.5 15.75V14.25ZM20.4253 11.469C19.4172 13.1373 17.5882 14.25 15.5 14.25V15.75C18.1349 15.75 20.4407 14.3439 21.7092 12.2447L20.4253 11.469ZM9.75 8.5C9.75 6.41182 10.8627 4.5828 12.531 3.57467L11.7553 2.29085C9.65609 3.5593 8.25 5.86509 8.25 8.5H9.75ZM12 2.75C11.9115 2.75 11.8077 2.71008 11.7324 2.63168C11.6686 2.56527 11.6538 2.50244 11.6503 2.47703C11.6461 2.44587 11.6482 2.35557 11.7553 2.29085L12.531 3.57467C13.0342 3.27065 13.196 2.71398 13.1368 2.27627C13.0754 1.82126 12.7166 1.25 12 1.25V2.75ZM21.7092 12.2447C21.6444 12.3518 21.5541 12.3539 21.523 12.3497C21.4976 12.3462 21.4347 12.3314 21.3683 12.2676C21.2899 12.1923 21.25 12.0885 21.25 12H22.75C22.75 11.2834 22.1787 10.9246 21.7237 10.8632C21.286 10.804 20.7293 10.9658 20.4253 11.469L21.7092 12.2447Z"
                fill="#FFFFFF"></path>
        </g>
    </symbol>

    <symbol id="arrow_icon" viewBox="0 0 24 24" fill="none" xmlns="http://www.w3.org/2000/svg"
        stroke="#ffffff">
        <g id="SVGRepo_bgCarrier" stroke-width="0"></g>
        <g id="SVGRepo_tracerCarrier" stroke-linecap="round" stroke-linejoin="round"></g>
        <g id="SVGRepo_iconCarrier">
            <path d="M7 3V21M7 3L11 7M7 3L3 7M14 3H15M14 9H17M14 15H19M14 21H21" stroke="#ffffff"
                stroke-width="2" stroke-linecap="round" stroke-linejoin="round"></path>
        </g>
    </symbol>

    <symbol id="linkedin_icon" viewBox="0 -2 44 44" version="1.1" xmlns="http://www.w3.org/2000/svg"
        xmlns:xlink="http://www.w3.org/1999/xlink" fill="#000000">
        <g id="SVGRepo_bgCarrier" stroke-width="0"></g>
        <g id="SVGRepo_tracerCarrier" stroke-linecap="round" stroke-linejoin="round"></g>
        <g id="SVGRepo_iconCarrier">
            <title>LinkedIn-color</title>
            <desc>Created with Sketch.</desc>
            <defs> </defs>
            <g id="Icons" stroke="none" stroke-width="1" fill="none" fill-rule="evenodd">
                <g id="Color-" transform="translate(-702.000000, -265.000000)" fill="#007EBB">
                    <path
                        d="M746,305 L736.2754,305 L736.2754,290.9384 C736.2754,287.257796 734.754233,284.74515 731.409219,284.74515 C728.850659,284.74515 727.427799,286.440738 726.765522,288.074854 C726.517168,288.661395 726.555974,289.478453 726.555974,290.295511 L726.555974,305 L716.921919,305 C716.921919,305 717.046096,280.091247 716.921919,277.827047 L726.555974,277.827047 L726.555974,282.091631 C727.125118,280.226996 730.203669,277.565794 735.116416,277.565794 C741.21143,277.565794 746,281.474355 746,289.890824 L746,305 L746,305 Z M707.17921,274.428187 L707.117121,274.428187 C704.0127,274.428187 702,272.350964 702,269.717936 C702,267.033681 704.072201,265 707.238711,265 C710.402634,265 712.348071,267.028559 712.41016,269.710252 C712.41016,272.34328 710.402634,274.428187 707.17921,274.428187 L707.17921,274.428187 L707.17921,274.428187 Z M703.109831,277.827047 L711.685795,277.827047 L711.685795,305 L703.109831,305 L703.109831,277.827047 L703.109831,277.827047 Z"
                        id="LinkedIn"> </path>
                </g>
            </g>
        </g>
    </symbol>

    <symbol id="github_icon" viewBox="0 0 20 20" version="1.1" xmlns="http://www.w3.org/2000/svg"
        xmlns:xlink="http://www.w3.org/1999/xlink" fill="#000000">
        <g id="SVGRepo_bgCarrier" stroke-width="0"></g>
        <g id="SVGRepo_tracerCarrier" stroke-linecap="round" stroke-linejoin="round"></g>
        <g id="SVGRepo_iconCarrier">
            <title>github [#142]</title>
            <desc>Created with Sketch.</desc>
            <defs> </defs>
            <g id="Page-1" stroke="none" stroke-width="1" fill="none" fill-rule="evenodd">
                <g id="Dribbble-Light-Preview" transform="translate(-140.000000, -7559.000000)"
                    fill="#000000">
                    <g id="icons" transform="translate(56.000000, 160.000000)">
                        <path
                            d="M94,7399 C99.523,7399 104,7403.59 104,7409.253 C104,7413.782 101.138,7417.624 97.167,7418.981 C96.66,7419.082 96.48,7418.762 96.48,7418.489 C96.48,7418.151 96.492,7417.047 96.492,7415.675 C96.492,7414.719 96.172,7414.095 95.813,7413.777 C98.04,7413.523 100.38,7412.656 100.38,7408.718 C100.38,7407.598 99.992,7406.684 99.35,7405.966 C99.454,7405.707 99.797,7404.664 99.252,7403.252 C99.252,7403.252 98.414,7402.977 96.505,7404.303 C95.706,7404.076 94.85,7403.962 94,7403.958 C93.15,7403.962 92.295,7404.076 91.497,7404.303 C89.586,7402.977 88.746,7403.252 88.746,7403.252 C88.203,7404.664 88.546,7405.707 88.649,7405.966 C88.01,7406.684 87.619,7407.598 87.619,7408.718 C87.619,7412.646 89.954,7413.526 92.175,7413.785 C91.889,7414.041 91.63,7414.493 91.54,7415.156 C90.97,7415.418 89.522,7415.871 88.63,7414.304 C88.63,7414.304 88.101,7413.319 87.097,7413.247 C87.097,7413.247 86.122,7413.234 87.029,7413.87 C87.029,7413.87 87.684,7414.185 88.139,7415.37 C88.139,7415.37 88.726,7417.2 91.508,7416.58 C91.513,7417.437 91.522,7418.245 91.522,7418.489 C91.522,7418.76 91.338,7419.077 90.839,7418.982 C86.865,7417.627 84,7413.783 84,7409.253 C84,7403.59 88.478,7399 94,7399"
                            id="github-[#142]"> </path>
                    </g>
                </g>
            </g>
        </g>
    </symbol>

    <symbol id="gmail_icon" xmlns="http://www.w3.org/2000/svg" aria-label="Gmail" role="img"
        viewBox="0 0 512 512"
        fill="#000000">
        <g id="SVGRepo_bgCarrier" stroke-width="0"></g>
        <g id="SVGRepo_tracerCarrier" stroke-linecap="round" stroke-linejoin="round"></g>
        <g id="SVGRepo_iconCarrier">
            <rect width="512" height="512" rx="15%" fill="#ffffff"></rect>
            <path d="M158 391v-142l-82-63V361q0 30 30 30" fill="#4285f4"></path>
            <path d="M 154 248l102 77l102-77v-98l-102 77l-102-77" fill="#ea4335"></path>
            <path d="M354 391v-142l82-63V361q0 30-30 30" fill="#34a853"></path>
            <path d="M76 188l82 63v-98l-30-23c-27-21-52 0-52 26" fill="#c5221f"></path>
            <path d="M436 188l-82 63v-98l30-23c27-21 52 0 52 26" fill="#fbbc04"></path>
        </g>
    </symbol>

    <symbol id="instagram_icon" viewBox="0 0 32 32" fill="none" xmlns="http://www.w3.org/2000/svg">
        <g id="SVGRepo_bgCarrier" stroke-width="0"></g>
        <g id="SVGRepo_tracerCarrier" stroke-linecap="round" stroke-linejoin="round"></g>
        <g id="SVGRepo_iconCarrier">
            <rect x="2" y="2" width="28" height="28" rx="6" fill="url(#paint0_radial_87_7153)"></rect>
            <rect x="2" y="2" width="28" height="28" rx="6" fill="url(#paint1_radial_87_7153)"></rect>
            <rect x="2" y="2" width="28" height="28" rx="6" fill="url(#paint2_radial_87_7153)"></rect>
            <path
                d="M23 10.5C23 11.3284 22.3284 12 21.5 12C20.6716 12 20 11.3284 20 10.5C20 9.67157 20.6716 9 21.5 9C22.3284 9 23 9.67157 23 10.5Z"
                fill="white"></path>
            <path fill-rule="evenodd" clip-rule="evenodd"
                d="M16 21C18.7614 21 21 18.7614 21 16C21 13.2386 18.7614 11 16 11C13.2386 11 11 13.2386 11 16C11 18.7614 13.2386 21 16 21ZM16 19C17.6569 19 19 17.6569 19 16C19 14.3431 17.6569 13 16 13C14.3431 13 13 14.3431 13 16C13 17.6569 14.3431 19 16 19Z"
                fill="white"></path>
            <path fill-rule="evenodd" clip-rule="evenodd"
                d="M6 15.6C6 12.2397 6 10.5595 6.65396 9.27606C7.2292 8.14708 8.14708 7.2292 9.27606 6.65396C10.5595 6 12.2397 6 15.6 6H16.4C19.7603 6 21.4405 6 22.7239 6.65396C23.8529 7.2292 24.7708 8.14708 25.346 9.27606C26 10.5595 26 12.2397 26 15.6V16.4C26 19.7603 26 21.4405 25.346 22.7239C24.7708 23.8529 23.8529 24.7708 22.7239 25.346C21.4405 26 19.7603 26 16.4 26H15.6C12.2397 26 10.5595 26 9.27606 25.346C8.14708 24.7708 7.2292 23.8529 6.65396 22.7239C6 21.4405 6 19.7603 6 16.4V15.6ZM15.6 8H16.4C18.1132 8 19.2777 8.00156 20.1779 8.0751C21.0548 8.14674 21.5032 8.27659 21.816 8.43597C22.5686 8.81947 23.1805 9.43139 23.564 10.184C23.7234 10.4968 23.8533 10.9452 23.9249 11.8221C23.9984 12.7223 24 13.8868 24 15.6V16.4C24 18.1132 23.9984 19.2777 23.9249 20.1779C23.8533 21.0548 23.7234 21.5032 23.564 21.816C23.1805 22.5686 22.5686 23.1805 21.816 23.564C21.5032 23.7234 21.0548 23.8533 20.1779 23.9249C19.2777 23.9984 18.1132 24 16.4 24H15.6C13.8868 24 12.7223 23.9984 11.8221 23.9249C10.9452 23.8533 10.4968 23.7234 10.184 23.564C9.43139 23.1805 8.81947 22.5686 8.43597 21.816C8.27659 21.5032 8.14674 21.0548 8.0751 20.1779C8.00156 19.2777 8 18.1132 8 16.4V15.6C8 13.8868 8.00156 12.7223 8.0751 11.8221C8.14674 10.9452 8.27659 10.4968 8.43597 10.184C8.81947 9.43139 9.43139 8.81947 10.184 8.43597C10.4968 8.27659 10.9452 8.14674 11.8221 8.0751C12.7223 8.00156 13.8868 8 15.6 8Z"
                fill="white"></path>
            <defs>
                <radialGradient id="paint0_radial_87_7153" cx="0" cy="0" r="1"
                    gradientUnits="userSpaceOnUse"
                    gradientTransform="translate(12 23) rotate(-55.3758) scale(25.5196)">
                    <stop stop-color="#B13589"></stop>
                    <stop offset="0.79309" stop-color="#C62F94"></stop>
                    <stop offset="1" stop-color="#8A3AC8"></stop>
                </radialGradient>
                <radialGradient id="paint1_radial_87_7153" cx="0" cy="0" r="1"
                    gradientUnits="userSpaceOnUse"
                    gradientTransform="translate(11 31) rotate(-65.1363) scale(22.5942)">
                    <stop stop-color="#E0E8B7"></stop>
                    <stop offset="0.444662" stop-color="#FB8A2E"></stop>
                    <stop offset="0.71474" stop-color="#E2425C"></stop>
                    <stop offset="1" stop-color="#E2425C" stop-opacity="0"></stop>
                </radialGradient>
                <radialGradient id="paint2_radial_87_7153" cx="0" cy="0" r="1"
                    gradientUnits="userSpaceOnUse"
                    gradientTransform="translate(0.500002 3) rotate(-8.1301) scale(38.8909 8.31836)">
                    <stop offset="0.156701" stop-color="#406ADC"></stop>
                    <stop offset="0.467799" stop-color="#6A45BE"></stop>
                    <stop offset="1" stop-color="#6A45BE" stop-opacity="0"></stop>
                </radialGradient>
            </defs>
        </g>
    </symbol>

    <symbol id="zapzap_icon" viewBox="0 0 32 32" fill="none" xmlns="http://www.w3.org/2000/svg">
        <g id="SVGRepo_bgCarrier" stroke-width="0"></g>
        <g id="SVGRepo_tracerCarrier" stroke-linecap="round" stroke-linejoin="round"></g>
        <g id="SVGRepo_iconCarrier">
            <path fill-rule="evenodd" clip-rule="evenodd"
                d="M16 31C23.732 31 30 24.732 30 17C30 9.26801 23.732 3 16 3C8.26801 3 2 9.26801 2 17C2 19.5109 2.661 21.8674 3.81847 23.905L2 31L9.31486 29.3038C11.3014 30.3854 13.5789 31 16 31ZM16 28.8462C22.5425 28.8462 27.8462 23.5425 27.8462 17C27.8462 10.4576 22.5425 5.15385 16 5.15385C9.45755 5.15385 4.15385 10.4576 4.15385 17C4.15385 19.5261 4.9445 21.8675 6.29184 23.7902L5.23077 27.7692L9.27993 26.7569C11.1894 28.0746 13.5046 28.8462 16 28.8462Z"
                fill="#BFC8D0"></path>
            <path
                d="M28 16C28 22.6274 22.6274 28 16 28C13.4722 28 11.1269 27.2184 9.19266 25.8837L5.09091 26.9091L6.16576 22.8784C4.80092 20.9307 4 18.5589 4 16C4 9.37258 9.37258 4 16 4C22.6274 4 28 9.37258 28 16Z"
                fill="url(#paint0_linear_87_7264)"></path>
            <path fill-rule="evenodd" clip-rule="evenodd"
                d="M16 30C23.732 30 30 23.732 30 16C30 8.26801 23.732 2 16 2C8.26801 2 2 8.26801 2 16C2 18.5109 2.661 20.8674 3.81847 22.905L2 30L9.31486 28.3038C11.3014 29.3854 13.5789 30 16 30ZM16 27.8462C22.5425 27.8462 27.8462 22.5425 27.8462 16C27.8462 9.45755 22.5425 4.15385 16 4.15385C9.45755 4.15385 4.15385 9.45755 4.15385 16C4.15385 18.5261 4.9445 20.8675 6.29184 22.7902L5.23077 26.7692L9.27993 25.7569C11.1894 27.0746 13.5046 27.8462 16 27.8462Z"
                fill="white"></path>
            <path
                d="M12.5 9.49989C12.1672 8.83131 11.6565 8.8905 11.1407 8.8905C10.2188 8.8905 8.78125 9.99478 8.78125 12.05C8.78125 13.7343 9.52345 15.578 12.0244 18.3361C14.438 20.9979 17.6094 22.3748 20.2422 22.3279C22.875 22.2811 23.4167 20.0154 23.4167 19.2503C23.4167 18.9112 23.2062 18.742 23.0613 18.696C22.1641 18.2654 20.5093 17.4631 20.1328 17.3124C19.7563 17.1617 19.5597 17.3656 19.4375 17.4765C19.0961 17.8018 18.4193 18.7608 18.1875 18.9765C17.9558 19.1922 17.6103 19.083 17.4665 19.0015C16.9374 18.7892 15.5029 18.1511 14.3595 17.0426C12.9453 15.6718 12.8623 15.2001 12.5959 14.7803C12.3828 14.4444 12.5392 14.2384 12.6172 14.1483C12.9219 13.7968 13.3426 13.254 13.5313 12.9843C13.7199 12.7145 13.5702 12.305 13.4803 12.05C13.0938 10.953 12.7663 10.0347 12.5 9.49989Z"
                fill="white"></path>
            <defs>
                <linearGradient id="paint0_linear_87_7264" x1="26.5" y1="7" x2="4" y2="28"
                    gradientUnits="userSpaceOnUse">
                    <stop stop-color="#5BD066"></stop>
                    <stop offset="1" stop-color="#27B43E"></stop>
                </linearGradient>
            </defs>
        </g>
    </symbol>

    <symbol version="1.1" id="cv_icon" xmlns="http://www.w3.org/2000/svg"
        xmlns:xlink="http://www.w3.org/1999/xlink" viewBox="0 0 451.319 451.319"
        xml:space="preserve" fill="#000000"><g id="SVGRepo_bgCarrier" stroke-width="0"></g><g id="SVGRepo_tracerCarrier" stroke-linecap="round" stroke-linejoin="round"></g><g id="SVGRepo_iconCarrier"> <circle style="fill:#45B39C;" cx="225.659" cy="225.638" r="225.638"></circle> <path style="opacity:0.1;enable-background:new ;" d="M129.188,96.37v258.566l96.38,96.38c0.031,0,0.061,0.002,0.092,0.002 c108.013,0,198.249-75.908,220.403-177.276L268.391,96.37C268.391,96.37,129.188,96.37,129.188,96.37z M179.306,158.754l0.01,0.014 l-0.01,0.006V158.754z M179.306,178.551l-0.013-0.013l0.012-0.011h0l0.012,0.011L179.306,178.551z M179.333,158.756l-0.004,0.002 l0.004-0.005V158.756z"></path> <polygon style="fill:#FFFFFF;" points="268.371,96.378 129.169,96.378 129.169,354.944 322.152,354.944 322.152,150.159 "></polygon> <polygon style="fill:#E1E6E9;" points="268.371,150.159 322.152,150.159 268.371,96.378 "></polygon> <polygon style="fill:#EBF0F3;" points="322.152,150.159 268.371,150.159 322.152,187.438 "></polygon> <g> <path style="fill:#F6C358;" d="M179.284,162.098l0.023,0.015l0,0v-0.02l0.01,0.014l0.012-0.008v0l0.004-0.005v0.003l8.473-5.663 l0.001,0v-9.385c-0.641,0.441-1.256,0.92-1.834,1.441c-3.718,3.361-7.365,2.785-7.365,2.785c-2.224,0.059-5.393-2.22-6.744-3.281 c-0.344-0.27-0.697-0.528-1.059-0.773v9.212l0,0L179.284,162.098z"></path> <polygon style="fill:#F6C358;" points="179.306,158.775 179.306,158.775 179.306,158.774 179.306,158.774 176.565,162.508 176.565,162.508 "></polygon> </g> <path style="fill:#64798A;" d="M193.474,137.047c0,0,0.49-3.308,2.184-6.026c0.411-0.66,0.636-1.418,0.636-2.196v-8.551 c0,0-0.534-4.193-4.65-5.184c0,0,1.677-3.571-2.668-4.415h-16.009l0,0c-5.852,0-10.597,4.744-10.597,10.597v6.282 c0,1.361,0.456,2.685,1.308,3.747c0.671,0.835,1.367,2.148,1.475,4.048"></path> <path style="fill:#FCD462;" d="M178.608,153.056c0,0,3.647,0.576,7.365-2.785c0.578-0.522,1.193-1,1.834-1.441 c0.063-0.044,0.125-0.089,0.189-0.132c1.646-1.106,4.809-4.171,5.479-11.651v-9.911c0,0-0.381-3.507-4.117-4.879l-5.552-1.949 c-1.035-0.363-2.165-0.349-3.191,0.04c-1.15,0.437-2.669,1.002-3.625,1.308c-0.458,0.147-0.936,0.22-1.417,0.22h-5.275 c0,0-4.117,0.534-5.146,5.145v8.327v1.927c0,0,0.179,8.1,5.542,11.65c0.038,0.025,0.073,0.052,0.111,0.077 c0.362,0.244,0.715,0.503,1.059,0.773C173.215,150.836,176.384,153.115,178.608,153.056z"></path> <g> <polygon style="fill:#D5D6DB;" points="182.048,161.783 180.312,164.275 181.915,174.376 185.931,167.073 "></polygon> <polygon style="fill:#D5D6DB;" points="176.83,174.997 178.587,163.924 176.676,161.181 172.42,166.978 "></polygon> <polygon style="fill:#D5D6DB;" points="176.565,162.508 176.449,162.666 179.306,158.789 179.306,158.775 179.306,158.775 "></polygon> </g> <g> <polygon style="fill:#E56353;" points="182.096,173.431 180.734,164.846 182.209,162.728 182.209,162.728 179.306,158.774 179.306,158.775 179.306,158.789 176.449,162.666 176.417,162.709 176.417,162.709 176.417,162.709 177.905,164.846 176.537,173.469 176.537,173.469 179.306,178.504 182.096,173.432 "></polygon> <polygon style="fill:#E56353;" points="179.323,178.535 179.587,178.27 179.315,178.52 "></polygon> <polygon style="fill:#E56353;" points="179.297,178.52 179.025,178.27 179.289,178.535 "></polygon> <polygon style="fill:#E56353;" points="179.294,178.539 179.306,178.552 179.319,178.539 179.306,178.528 179.306,178.528 179.306,178.528 "></polygon> <polygon style="fill:#E56353;" points="179.333,158.754 179.328,158.759 179.333,158.756 "></polygon> <polygon style="fill:#E56353;" points="179.306,158.754 179.306,158.774 179.316,158.767 "></polygon> </g> <g> <polygon style="fill:#E1E6E9;" points="179.333,158.756 179.328,158.759 179.328,158.759 179.316,158.767 179.306,158.774 179.306,158.774 179.306,158.774 179.306,158.774 179.306,158.774 182.209,162.728 185.51,167.224 192.38,154.734 187.807,153.094 187.806,153.094 "></polygon> <polygon style="fill:#E1E6E9;" points="176.417,162.709 176.417,162.709 176.565,162.508 179.306,158.774 179.306,158.774 179.306,158.774 179.284,158.759 170.806,153.094 170.806,153.094 166.232,154.734 173.102,167.224 "></polygon> </g> <g> <path style="fill:#3A556A;" d="M179.323,178.535l0.009,0.017h3.576h27.313c1.955,0,3.443-1.754,3.124-3.683l-1.539-9.292 c-0.415-2.506-2.151-4.593-4.54-5.457l-14.886-5.386"></path> <ellipse transform="matrix(-0.7203 -0.6936 0.6936 -0.7203 184.6395 431.5238)" style="fill:#3A556A;" cx="179.316" cy="178.538" rx="0.015" ry="0.01"></ellipse> </g> <g> <polygon style="fill:#2F4859;" points="182.096,173.432 179.306,178.504 179.306,178.504 179.315,178.52 179.587,178.27 193.066,165.94 191.389,162.738 196.334,162.662 192.38,154.734 185.51,167.224 "></polygon> <polygon style="fill:#2F4859;" points="179.294,178.539 179.306,178.528 179.306,178.528 179.297,178.52 179.289,178.535 "></polygon> </g> <path style="fill:#3A556A;" d="M179.294,178.539l-0.004-0.004l-13.057-23.801l-14.886,5.386c-2.389,0.864-4.125,2.951-4.54,5.457 l-1.539,9.292c-0.319,1.929,1.169,3.683,3.124,3.683h27.339h2.111h0.026h1.438h0L179.294,178.539z"></path> <polygon style="fill:#2F4859;" points="179.323,178.535 179.315,178.52 179.306,178.504 179.306,178.504 176.537,173.469 173.102,167.224 166.232,154.734 162.279,162.662 167.223,162.738 165.546,165.94 179.025,178.27 179.297,178.52 179.306,178.528 179.306,178.528 179.319,178.539 179.333,178.552 "></polygon> <g> <rect x="144.938" y="199.629" style="fill:#EBF0F3;" width="161.423" height="4.7"></rect> <rect x="144.938" y="220.175" style="fill:#EBF0F3;" width="161.423" height="4.7"></rect> <rect x="144.938" y="240.742" style="fill:#EBF0F3;" width="161.423" height="4.7"></rect> <rect x="144.938" y="261.274" style="fill:#EBF0F3;" width="161.423" height="4.7"></rect> <rect x="144.938" y="281.805" style="fill:#EBF0F3;" width="161.423" height="4.7"></rect> <rect x="144.938" y="302.336" style="fill:#EBF0F3;" width="161.423" height="4.7"></rect> <rect x="144.938" y="322.918" style="fill:#EBF0F3;" width="131.779" height="4.7"></rect> </g> </g>
    </symbol>

    <symbol id="show_icon" viewBox="0 0 24 24" xmlns="http://www.w3.org/2000/svg" fill="none" stroke="#000000"
        stroke-width="1" stroke-linecap="round" stroke-linejoin="miter">
        <g id="SVGRepo_bgCarrier" stroke-width="0"></g>
        <g id="SVGRepo_tracerCarrier" stroke-linecap="round" stroke-linejoin="round"></g>
        <g id="SVGRepo_iconCarrier">
            <path d="M2,12S5,4,12,4s10,8,10,8-2,8-10,8S2,12,2,12Z"></path>
            <circle cx="12" cy="12" r="4" stroke-width="0" fill="#059cf7" opacity="0.1"></circle>
            <circle cx="12" cy="12" r="4"></circle>
        </g>
    </symbol>
</svg>