<svg xmlns="http://www.w3.org/2000/svg" viewBox="0 0 512 512">
    <symbol id="config_icon_fill" viewBox="0 0 512 512">
        <path
            d="M495.9 166.6c3.2 8.7 .5 18.4-6.4 24.6l-43.3 39.4c1.1 8.3 1.7 16.8 1.7 25.4s-.6 17.1-1.7 25.4l43.3 39.4c6.9 6.2 9.6 15.9 6.4 24.6c-4.4 11.9-9.7 23.3-15.8 34.3l-4.7 8.1c-6.6 11-14 21.4-22.1 31.2c-5.9 7.2-15.7 9.6-24.5 6.8l-55.7-17.7c-13.4 10.3-28.2 18.9-44 25.4l-12.5 57.1c-2 9.1-9 16.3-18.2 17.8c-13.8 2.3-28 3.5-42.5 3.5s-28.7-1.2-42.5-3.5c-9.2-1.5-16.2-8.7-18.2-17.8l-12.5-57.1c-15.8-6.5-30.6-15.1-44-25.4L83.1 425.9c-8.8 2.8-18.6 .3-24.5-6.8c-8.1-9.8-15.5-20.2-22.1-31.2l-4.7-8.1c-6.1-11-11.4-22.4-15.8-34.3c-3.2-8.7-.5-18.4 6.4-24.6l43.3-39.4C64.6 273.1 64 264.6 64 256s.6-17.1 1.7-25.4L22.4 191.2c-6.9-6.2-9.6-15.9-6.4-24.6c4.4-11.9 9.7-23.3 15.8-34.3l4.7-8.1c6.6-11 14-21.4 22.1-31.2c5.9-7.2 15.7-9.6 24.5-6.8l55.7 17.7c13.4-10.3 28.2-18.9 44-25.4l12.5-57.1c2-9.1 9-16.3 18.2-17.8C227.3 1.2 241.5 0 256 0s28.7 1.2 42.5 3.5c9.2 1.5 16.2 8.7 18.2 17.8l12.5 57.1c15.8 6.5 30.6 15.1 44 25.4l55.7-17.7c8.8-2.8 18.6-.3 24.5 6.8c8.1 9.8 15.5 20.2 22.1 31.2l4.7 8.1c6.1 11 11.4 22.4 15.8 34.3zM256 336a80 80 0 1 0 0-160 80 80 0 1 0 0 160z" />
    </symbol>

    <symbol
        id="config_icon_dashed" viewBox="0 0 32 32" version="1.1"
        xmlns="http://www.w3.org/2000/svg"
        xmlns:xlink="http://www.w3.org/1999/xlink" fill="#ffffff">
        <g id="SVGRepo_bgCarrier" stroke-width="0"></g>
        <g id="SVGRepo_tracerCarrier" stroke-linecap="round" stroke-linejoin="round"></g>
        <g id="SVGRepo_iconCarrier">
            <g id="icomoon-ignore"> </g>
            <path
                d="M17.599 3.738v2.598l0.8 0.207c0.905 0.234 1.768 0.597 2.566 1.081l0.715 0.434 1.86-1.86 2.262 2.262-1.888 1.888 0.407 0.708c0.451 0.785 0.788 1.635 1.002 2.527l0.196 0.817h2.744v3.199h-2.806l-0.216 0.782c-0.233 0.844-0.583 1.654-1.040 2.406l-0.434 0.716 2.036 2.035-2.262 2.262-2.064-2.064-0.707 0.407c-0.734 0.422-1.531 0.745-2.368 0.961l-0.8 0.206v2.951h-3.199v-2.951l-0.8-0.206c-0.837-0.216-1.634-0.539-2.368-0.961l-0.708-0.407-2.064 2.064-2.262-2.262 2.036-2.035-0.434-0.716c-0.457-0.753-0.807-1.562-1.040-2.406l-0.216-0.782h-2.806v-3.199h2.744l0.196-0.817c0.213-0.891 0.551-1.742 1.002-2.527l0.407-0.708-1.888-1.888 2.262-2.262 1.86 1.86 0.715-0.434c0.798-0.484 1.661-0.848 2.566-1.081l0.8-0.207v-2.598h3.199zM16 20.799c2.646 0 4.798-2.153 4.798-4.799s-2.152-4.799-4.798-4.799-4.798 2.153-4.798 4.799c0 2.646 2.152 4.799 4.798 4.799zM18.666 2.672h-5.331v2.839c-1.018 0.263-1.975 0.67-2.852 1.202l-2.022-2.022-3.769 3.77 2.065 2.065c-0.498 0.867-0.875 1.81-1.114 2.809h-2.97v5.331h3.060c0.263 0.953 0.655 1.85 1.156 2.676l-2.198 2.198 3.769 3.77 2.241-2.241c0.816 0.469 1.7 0.828 2.633 1.069v3.191h5.331v-3.191c0.933-0.241 1.817-0.6 2.633-1.069l2.241 2.241 3.769-3.77-2.198-2.198c0.501-0.826 0.893-1.723 1.156-2.676h3.060v-5.331h-2.97c-0.239-0.999-0.616-1.941-1.114-2.809l2.065-2.065-3.769-3.77-2.022 2.022c-0.877-0.532-1.834-0.939-2.852-1.202v-2.839h-0zM16 19.733c-2.062 0-3.732-1.671-3.732-3.733s1.67-3.732 3.732-3.732 3.732 1.671 3.732 3.732c0 2.062-1.67 3.733-3.732 3.733v0z"
                fill="#ffffff"> </path>
        </g>
    </symbol>

    <symbol id="light_theme_icon"
        viewBox="0 0 24 24"
        xmlns="http://www.w3.org/2000/svg">
        <g id="SVGRepo_bgCarrier" stroke-width="0"></g>
        <g id="SVGRepo_tracerCarrier" stroke-linecap="round" stroke-linejoin="round"></g>
        <g id="SVGRepo_iconCarrier">
            <g id="Light">
                <g>
                    <path
                        d="M12,18.09A6.09,6.09,0,1,1,18.09,12,6.1,6.1,0,0,1,12,18.09ZM12,6.91A5.09,5.09,0,1,0,17.09,12,5.1,5.1,0,0,0,12,6.91Z"></path>
                    <path d="M11.5,2.568v1.6a.5.5,0,1,0,1,0v-1.6a.5.5,0,1,0-1,0Z"></path>
                    <path d="M12.5,21.432v-1.6a.5.5,0,0,0-1,0v1.6a.5.5,0,1,0,1,0Z"></path>
                    <path d="M21.432,11.5h-1.6a.5.5,0,0,0,0,1h1.6a.5.5,0,1,0,0-1Z"></path>
                    <path d="M2.568,12.5h1.6a.5.5,0,1,0,0-1h-1.6a.5.5,0,1,0,0,1Z"></path>
                    <path
                        d="M18.316,4.977l-.992.992-.141.141a.514.514,0,0,0-.146.353.508.508,0,0,0,.146.354.5.5,0,0,0,.354.146.515.515,0,0,0,.353-.146l.992-.992.141-.141a.515.515,0,0,0,.147-.354.508.508,0,0,0-.147-.353.5.5,0,0,0-.353-.147.522.522,0,0,0-.354.147Z"></path>
                    <path
                        d="M5.684,19.023l.992-.992.141-.141a.514.514,0,0,0,.146-.353.508.508,0,0,0-.146-.354.5.5,0,0,0-.354-.146.515.515,0,0,0-.353.146l-.992.992-.141.141a.515.515,0,0,0-.147.354.508.508,0,0,0,.147.353.5.5,0,0,0,.353.147.522.522,0,0,0,.354-.147Z"></path>
                    <path
                        d="M19.023,18.316l-.992-.992-.141-.141a.514.514,0,0,0-.353-.146.508.508,0,0,0-.354.146.5.5,0,0,0-.146.354.515.515,0,0,0,.146.353l.992.992.141.141a.515.515,0,0,0,.354.147.508.508,0,0,0,.353-.147.5.5,0,0,0,.147-.353.522.522,0,0,0-.147-.354Z"></path>
                    <path
                        d="M4.977,5.684l.992.992.141.141a.514.514,0,0,0,.353.146.508.508,0,0,0,.354-.146.5.5,0,0,0,.146-.354.515.515,0,0,0-.146-.353l-.992-.992-.141-.141A.515.515,0,0,0,5.33,4.83a.508.508,0,0,0-.353.147.5.5,0,0,0-.147.353.522.522,0,0,0,.147.354Z"></path>
                </g>
            </g>
        </g>
    </symbol>

    <symbol id="dark_theme_icon" width="64px" height="64px" viewBox="0 0 24 24" fill="none"
        xmlns="http://www.w3.org/2000/svg" transform="matrix(1, 0, 0, 1, 0, 0)">
        <g id="SVGRepo_bgCarrier" stroke-width="0"></g>
        <g id="SVGRepo_tracerCarrier" stroke-linecap="round" stroke-linejoin="round"
            stroke="#FFFFFF" stroke-width="0.048"></g>
        <g id="SVGRepo_iconCarrier">
            <path
                d="M19.9001 2.30719C19.7392 1.8976 19.1616 1.8976 19.0007 2.30719L18.5703 3.40247C18.5212 3.52752 18.4226 3.62651 18.298 3.67583L17.2067 4.1078C16.7986 4.26934 16.7986 4.849 17.2067 5.01054L18.298 5.44252C18.4226 5.49184 18.5212 5.59082 18.5703 5.71587L19.0007 6.81115C19.1616 7.22074 19.7392 7.22074 19.9001 6.81116L20.3305 5.71587C20.3796 5.59082 20.4782 5.49184 20.6028 5.44252L21.6941 5.01054C22.1022 4.849 22.1022 4.26934 21.6941 4.1078L20.6028 3.67583C20.4782 3.62651 20.3796 3.52752 20.3305 3.40247L19.9001 2.30719Z"
                stroke="#FFFFFF"></path>
            <path
                d="M16.0328 8.12967C15.8718 7.72009 15.2943 7.72009 15.1333 8.12967L14.9764 8.52902C14.9273 8.65407 14.8287 8.75305 14.7041 8.80237L14.3062 8.95987C13.8981 9.12141 13.8981 9.70107 14.3062 9.86261L14.7041 10.0201C14.8287 10.0694 14.9273 10.1684 14.9764 10.2935L15.1333 10.6928C15.2943 11.1024 15.8718 11.1024 16.0328 10.6928L16.1897 10.2935C16.2388 10.1684 16.3374 10.0694 16.462 10.0201L16.8599 9.86261C17.268 9.70107 17.268 9.12141 16.8599 8.95987L16.462 8.80237C16.3374 8.75305 16.2388 8.65407 16.1897 8.52902L16.0328 8.12967Z"
                stroke="#FFFFFF"></path>
            <path opacity="0.5"
                d="M21.0672 11.8568L20.4253 11.469L21.0672 11.8568ZM12.1432 2.93276L11.7553 2.29085V2.29085L12.1432 2.93276ZM21.25 12C21.25 17.1086 17.1086 21.25 12 21.25V22.75C17.9371 22.75 22.75 17.9371 22.75 12H21.25ZM12 21.25C6.89137 21.25 2.75 17.1086 2.75 12H1.25C1.25 17.9371 6.06294 22.75 12 22.75V21.25ZM2.75 12C2.75 6.89137 6.89137 2.75 12 2.75V1.25C6.06294 1.25 1.25 6.06294 1.25 12H2.75ZM15.5 14.25C12.3244 14.25 9.75 11.6756 9.75 8.5H8.25C8.25 12.5041 11.4959 15.75 15.5 15.75V14.25ZM20.4253 11.469C19.4172 13.1373 17.5882 14.25 15.5 14.25V15.75C18.1349 15.75 20.4407 14.3439 21.7092 12.2447L20.4253 11.469ZM9.75 8.5C9.75 6.41182 10.8627 4.5828 12.531 3.57467L11.7553 2.29085C9.65609 3.5593 8.25 5.86509 8.25 8.5H9.75ZM12 2.75C11.9115 2.75 11.8077 2.71008 11.7324 2.63168C11.6686 2.56527 11.6538 2.50244 11.6503 2.47703C11.6461 2.44587 11.6482 2.35557 11.7553 2.29085L12.531 3.57467C13.0342 3.27065 13.196 2.71398 13.1368 2.27627C13.0754 1.82126 12.7166 1.25 12 1.25V2.75ZM21.7092 12.2447C21.6444 12.3518 21.5541 12.3539 21.523 12.3497C21.4976 12.3462 21.4347 12.3314 21.3683 12.2676C21.2899 12.1923 21.25 12.0885 21.25 12H22.75C22.75 11.2834 22.1787 10.9246 21.7237 10.8632C21.286 10.804 20.7293 10.9658 20.4253 11.469L21.7092 12.2447Z"
                fill="#FFFFFF"></path>
        </g>
    </symbol>

    </svg>